<svg width="14" height="14" viewBox="0 0 14 14" fill="none" xmlns="http://www.w3.org/2000/svg">
<path d="M7.62779 0.929468C7.28055 0.582226 6.71663 0.582226 6.36939 0.929468L1.9247 5.37416C1.57745 5.7214 1.57745 6.28532 1.9247 6.63256C2.27194 6.97981 2.83586 6.97981 3.1831 6.63256L6.11104 3.70184L6.11104 12.2245C6.11104 12.7162 6.50828 13.1135 6.99998 13.1135C7.49167 13.1135 7.88892 12.7162 7.88892 12.2245L7.88892 3.70462L10.8169 6.62979C11.1641 6.97703 11.728 6.97703 12.0753 6.62979C12.4225 6.28254 12.4225 5.71862 12.0753 5.37138L7.63057 0.92669L7.62779 0.929468Z" fill="#999999"/>
</svg>
