<svg width="16" height="4" viewBox="0 0 16 4" fill="none" xmlns="http://www.w3.org/2000/svg">
<path fill-rule="evenodd" clip-rule="evenodd" d="M-8.74228e-08 2C-6.42368e-08 1.46957 0.210714 0.960859 0.585787 0.585786C0.960859 0.210713 1.46957 -6.35145e-07 2 -6.11959e-07C2.53043 -5.88773e-07 3.03914 0.210714 3.41421 0.585786C3.78929 0.960859 4 1.46957 4 2C4 2.53043 3.78929 3.03914 3.41421 3.41421C3.03914 3.78929 2.53043 4 2 4C1.46957 4 0.960859 3.78929 0.585787 3.41421C0.210714 3.03914 -1.10609e-07 2.53043 -8.74228e-08 2ZM6 2C6 1.46957 6.21071 0.960859 6.58579 0.585786C6.96086 0.210714 7.46957 -3.72877e-07 8 -3.49691e-07C8.53043 -3.26505e-07 9.03914 0.210714 9.41421 0.585787C9.78929 0.960859 10 1.46957 10 2C10 2.53043 9.78929 3.03914 9.41421 3.41421C9.03914 3.78929 8.53043 4 8 4C7.46957 4 6.96086 3.78929 6.58579 3.41421C6.21071 3.03914 6 2.53043 6 2ZM12 2C12 1.46957 12.2107 0.960859 12.5858 0.585787C12.9609 0.210714 13.4696 -1.10609e-07 14 -8.74228e-08C14.5304 -6.42368e-08 15.0391 0.210714 15.4142 0.585787C15.7893 0.96086 16 1.46957 16 2C16 2.53043 15.7893 3.03914 15.4142 3.41421C15.0391 3.78929 14.5304 4 14 4C13.4696 4 12.9609 3.78929 12.5858 3.41421C12.2107 3.03914 12 2.53043 12 2Z" fill="#757575"/>
</svg>
