<svg width="16" height="16" viewBox="0 0 16 16" fill="none" xmlns="http://www.w3.org/2000/svg">
<path d="M15.7396 9.66667C15.7396 9.70139 15.7361 9.72569 15.7292 9.73958C15.2847 11.6007 14.3542 13.1094 12.9375 14.2656C11.5208 15.4219 9.86111 16 7.95833 16C6.94444 16 5.96354 15.809 5.01562 15.4271C4.06771 15.0451 3.22222 14.5 2.47917 13.7917L1.13542 15.1354C1.00347 15.2674 0.847222 15.3333 0.666667 15.3333C0.486111 15.3333 0.329861 15.2674 0.197917 15.1354C0.0659722 15.0035 0 14.8472 0 14.6667V10C0 9.81944 0.0659722 9.66319 0.197917 9.53125C0.329861 9.39931 0.486111 9.33333 0.666667 9.33333H5.33333C5.51389 9.33333 5.67014 9.39931 5.80208 9.53125C5.93403 9.66319 6 9.81944 6 10C6 10.1806 5.93403 10.3368 5.80208 10.4688L4.375 11.8958C4.86806 12.3542 5.42708 12.7083 6.05208 12.9583C6.67708 13.2083 7.32639 13.3333 8 13.3333C8.93056 13.3333 9.79861 13.1076 10.6042 12.6562C11.4097 12.2049 12.0556 11.5833 12.5417 10.7917C12.6181 10.6736 12.8021 10.2674 13.0938 9.57292C13.1493 9.41319 13.2535 9.33333 13.4062 9.33333H15.4062C15.4965 9.33333 15.5747 9.36632 15.6406 9.43229C15.7066 9.49826 15.7396 9.57639 15.7396 9.66667ZM16 1.33333V6C16 6.18056 15.934 6.33681 15.8021 6.46875C15.6701 6.60069 15.5139 6.66667 15.3333 6.66667H10.6667C10.4861 6.66667 10.3299 6.60069 10.1979 6.46875C10.066 6.33681 10 6.18056 10 6C10 5.81944 10.066 5.66319 10.1979 5.53125L11.6354 4.09375C10.6076 3.14236 9.39583 2.66667 8 2.66667C7.06944 2.66667 6.20139 2.89236 5.39583 3.34375C4.59028 3.79514 3.94444 4.41667 3.45833 5.20833C3.38194 5.32639 3.19792 5.73264 2.90625 6.42708C2.85069 6.58681 2.74653 6.66667 2.59375 6.66667H0.520833C0.430556 6.66667 0.352431 6.63368 0.286458 6.56771C0.220486 6.50174 0.1875 6.42361 0.1875 6.33333V6.26042C0.638889 4.39931 1.57639 2.89062 3 1.73438C4.42361 0.578125 6.09028 0 8 0C9.01389 0 10 0.192708 10.9583 0.578125C11.9167 0.963542 12.7674 1.50694 13.5104 2.20833L14.8646 0.864583C14.9965 0.732639 15.1528 0.666667 15.3333 0.666667C15.5139 0.666667 15.6701 0.732639 15.8021 0.864583C15.934 0.996528 16 1.15278 16 1.33333Z" fill="#757575"/>
</svg>
