<svg width="14" height="14" viewBox="0 0 14 14" fill="none" xmlns="http://www.w3.org/2000/svg">
<path fill-rule="evenodd" clip-rule="evenodd" d="M10.0276 9.0287L13.7934 12.7945C13.9257 12.927 14.0001 13.1066 14 13.2938C13.9999 13.4811 13.9255 13.6607 13.793 13.793C13.6606 13.9254 13.481 13.9997 13.2937 13.9997C13.1064 13.9996 12.9269 13.9251 12.7945 13.7927L9.0287 10.0269C7.90295 10.8988 6.48731 11.3091 5.06977 11.1743C3.65223 11.0396 2.33927 10.3699 1.39799 9.30142C0.456712 8.23297 -0.0421836 6.84607 0.0027973 5.42285C0.0477782 3.99963 0.633257 2.647 1.64013 1.64013C2.647 0.633257 3.99963 0.0477782 5.42285 0.0027973C6.84607 -0.0421836 8.23297 0.456712 9.30142 1.39799C10.3699 2.33927 11.0396 3.65223 11.1743 5.06977C11.3091 6.48731 10.8988 7.90295 10.0269 9.0287H10.0276ZM5.60026 9.79937C6.71412 9.79937 7.78235 9.35689 8.56997 8.56927C9.35759 7.78165 9.80007 6.71342 9.80007 5.59956C9.80007 4.4857 9.35759 3.41747 8.56997 2.62985C7.78235 1.84223 6.71412 1.39976 5.60026 1.39976C4.4864 1.39976 3.41817 1.84223 2.63055 2.62985C1.84293 3.41747 1.40046 4.4857 1.40046 5.59956C1.40046 6.71342 1.84293 7.78165 2.63055 8.56927C3.41817 9.35689 4.4864 9.79937 5.60026 9.79937Z" fill="#79ACFF"/>
</svg>
