<svg width="24" height="24" viewBox="0 0 24 24" fill="none" xmlns="http://www.w3.org/2000/svg">
<path d="M6.40002 12C6.40002 11.3373 6.93728 10.8 7.60002 10.8C8.26277 10.8 8.80002 11.3373 8.80002 12C8.80002 12.6627 8.26277 13.2 7.60002 13.2C6.93728 13.2 6.40002 12.6627 6.40002 12Z" fill="#999999"/>
<path d="M10.8 12C10.8 11.3373 11.3373 10.8 12 10.8C12.6628 10.8 13.2 11.3373 13.2 12C13.2 12.6627 12.6628 13.2 12 13.2C11.3373 13.2 10.8 12.6627 10.8 12Z" fill="#999999"/>
<path d="M16.4 10.8C15.7373 10.8 15.2 11.3373 15.2 12C15.2 12.6627 15.7373 13.2 16.4 13.2C17.0628 13.2 17.6 12.6627 17.6 12C17.6 11.3373 17.0628 10.8 16.4 10.8Z" fill="#999999"/>
</svg>
