<svg width="14" height="14" viewBox="0 0 14 14" fill="none" xmlns="http://www.w3.org/2000/svg">
<g clip-path="url(#clip0_262_1790)">
<path d="M7 0.875C3.5875 0.875 0.875 3.5875 0.875 7C0.875 10.4125 3.5875 13.125 7 13.125C10.4125 13.125 13.125 10.4125 13.125 7C13.125 3.5875 10.4125 0.875 7 0.875ZM7 12.25C4.1125 12.25 1.75 9.8875 1.75 7C1.75 4.1125 4.1125 1.75 7 1.75C9.8875 1.75 12.25 4.1125 12.25 7C12.25 9.8875 9.8875 12.25 7 12.25Z" fill="#FF6C72"/>
<path d="M9.3625 10.0625L7 7.7L4.6375 10.0625L3.9375 9.3625L6.3 7L3.9375 4.6375L4.6375 3.9375L7 6.3L9.3625 3.9375L10.0625 4.6375L7.7 7L10.0625 9.3625L9.3625 10.0625Z" fill="#FF6C72"/>
</g>
<defs>
<clipPath id="clip0_262_1790">
<rect width="14" height="14" fill="white"/>
</clipPath>
</defs>
</svg>
