<svg width="24" height="24" viewBox="0 0 24 24" fill="none" xmlns="http://www.w3.org/2000/svg">
  <path d="M19.5659 4.175C19.8815 4.39375 20.0471 4.77187 19.9877 5.15L17.9877 18.15C17.9409 18.4531 17.7565 18.7187 17.4877 18.8687C17.219 19.0187 16.8971 19.0375 16.6127 18.9187L12.8752 17.3656L10.7346 19.6812C10.4565 19.9844 10.019 20.0844 9.63461 19.9344C9.25023 19.7844 9.00023 19.4125 9.00023 19V16.3875C9.00023 16.2625 9.04711 16.1437 9.13148 16.05L14.369 10.3375C14.5502 10.1406 14.544 9.8375 14.3565 9.65C14.169 9.4625 13.8659 9.45 13.669 9.62812L7.31273 15.275L4.55336 13.8937C4.22211 13.7281 4.00961 13.3969 4.00023 13.0281C3.99086 12.6594 4.18461 12.3156 4.50336 12.1312L18.5034 4.13125C18.8377 3.94062 19.2502 3.95937 19.5659 4.175Z" fill="#677ED9" stroke="none"/>
</svg>
