<svg width="48" height="48" viewBox="0 0 48 48" fill="none" xmlns="http://www.w3.org/2000/svg">
<g filter="url(#filter0_d_198_1994)">
<path d="M24 39.5C33.665 39.5 41.5 31.665 41.5 22C41.5 12.335 33.665 4.5 24 4.5C14.335 4.5 6.5 12.335 6.5 22C6.5 31.665 14.335 39.5 24 39.5Z" fill="#F0F5FF"/>
<path fill-rule="evenodd" clip-rule="evenodd" d="M24 5.5C14.8873 5.5 7.5 12.8873 7.5 22C7.5 31.1127 14.8873 38.5 24 38.5C33.1127 38.5 40.5 31.1127 40.5 22C40.5 12.8873 33.1127 5.5 24 5.5ZM5.5 22C5.5 11.7827 13.7827 3.5 24 3.5C34.2173 3.5 42.5 11.7827 42.5 22C42.5 32.2173 34.2173 40.5 24 40.5C13.7827 40.5 5.5 32.2173 5.5 22Z" fill="#79ACFF"/>
<path fill-rule="evenodd" clip-rule="evenodd" d="M25 14.5C25 13.9477 24.5523 13.5 24 13.5C23.4477 13.5 23 13.9477 23 14.5V21H16.5C15.9477 21 15.5 21.4477 15.5 22C15.5 22.5523 15.9477 23 16.5 23H23V29.5C23 30.0523 23.4477 30.5 24 30.5C24.5523 30.5 25 30.0523 25 29.5V23H31.5C32.0523 23 32.5 22.5523 32.5 22C32.5 21.4477 32.0523 21 31.5 21H25V14.5Z" fill="#79ACFF"/>
</g>
<defs>
<filter id="filter0_d_198_1994" x="0.5" y="0.5" width="47" height="47" filterUnits="userSpaceOnUse" color-interpolation-filters="sRGB">
<feFlood flood-opacity="0" result="BackgroundImageFix"/>
<feColorMatrix in="SourceAlpha" type="matrix" values="0 0 0 0 0 0 0 0 0 0 0 0 0 0 0 0 0 0 127 0" result="hardAlpha"/>
<feOffset dy="2"/>
<feGaussianBlur stdDeviation="2.5"/>
<feComposite in2="hardAlpha" operator="out"/>
<feColorMatrix type="matrix" values="0 0 0 0 0 0 0 0 0 0 0 0 0 0 0 0 0 0 0.15 0"/>
<feBlend mode="normal" in2="BackgroundImageFix" result="effect1_dropShadow_198_1994"/>
<feBlend mode="normal" in="SourceGraphic" in2="effect1_dropShadow_198_1994" result="shape"/>
</filter>
</defs>
</svg>
