<svg width="16" height="16" viewBox="0 0 16 16" fill="none" xmlns="http://www.w3.org/2000/svg">
<path fill-rule="evenodd" clip-rule="evenodd" d="M11.0276 10.0287L14.7934 13.7945C14.9257 13.927 15.0001 14.1066 15 14.2938C14.9999 14.4811 14.9255 14.6607 14.793 14.793C14.6606 14.9254 14.481 14.9997 14.2937 14.9997C14.1064 14.9996 13.9269 14.9251 13.7945 14.7927L10.0287 11.0269C8.90295 11.8988 7.48731 12.3091 6.06977 12.1743C4.65223 12.0396 3.33927 11.3699 2.39799 10.3014C1.45671 9.23297 0.957816 7.84607 1.0028 6.42285C1.04778 4.99963 1.63326 3.647 2.64013 2.64013C3.647 1.63326 4.99963 1.04778 6.42285 1.0028C7.84607 0.957816 9.23297 1.45671 10.3014 2.39799C11.3699 3.33927 12.0396 4.65223 12.1743 6.06977C12.3091 7.48731 11.8988 8.90295 11.0269 10.0287H11.0276ZM6.60026 10.7994C7.71412 10.7994 8.78235 10.3569 9.56997 9.56927C10.3576 8.78165 10.8001 7.71342 10.8001 6.59956C10.8001 5.4857 10.3576 4.41747 9.56997 3.62985C8.78235 2.84223 7.71412 2.39976 6.60026 2.39976C5.4864 2.39976 4.41817 2.84223 3.63055 3.62985C2.84293 4.41747 2.40046 5.4857 2.40046 6.59956C2.40046 7.71342 2.84293 8.78165 3.63055 9.56927C4.41817 10.3569 5.4864 10.7994 6.60026 10.7994Z" fill="#79ACFF"/>
</svg>
