<svg width="40" height="40" viewBox="0 0 40 40" fill="none" xmlns="http://www.w3.org/2000/svg">
<path d="M20 37.5C29.665 37.5 37.5 29.665 37.5 20C37.5 10.335 29.665 2.5 20 2.5C10.335 2.5 2.5 10.335 2.5 20C2.5 29.665 10.335 37.5 20 37.5Z" fill="#F0F5FF"/>
<path fill-rule="evenodd" clip-rule="evenodd" d="M20 3.5C10.8873 3.5 3.5 10.8873 3.5 20C3.5 29.1127 10.8873 36.5 20 36.5C29.1127 36.5 36.5 29.1127 36.5 20C36.5 10.8873 29.1127 3.5 20 3.5ZM1.5 20C1.5 9.78273 9.78273 1.5 20 1.5C30.2173 1.5 38.5 9.78273 38.5 20C38.5 30.2173 30.2173 38.5 20 38.5C9.78273 38.5 1.5 30.2173 1.5 20Z" fill="#79ACFF"/>
<path fill-rule="evenodd" clip-rule="evenodd" d="M21 12.5C21 11.9477 20.5523 11.5 20 11.5C19.4477 11.5 19 11.9477 19 12.5V19H12.5C11.9477 19 11.5 19.4477 11.5 20C11.5 20.5523 11.9477 21 12.5 21H19V27.5C19 28.0523 19.4477 28.5 20 28.5C20.5523 28.5 21 28.0523 21 27.5V21H27.5C28.0523 21 28.5 20.5523 28.5 20C28.5 19.4477 28.0523 19 27.5 19H21V12.5Z" fill="#79ACFF"/>
</svg>
