<svg width="24" height="24" viewBox="0 0 24 24" fill="none" xmlns="http://www.w3.org/2000/svg">
<path d="M16 4H4.8C4.4 4 4 4.32 4 4.8V19.2C4 19.68 4.4 20 4.8 20H14.32V19.92C12.08 19.52 10.4 17.52 10.4 15.2C10.4 11.84 13.76 9.6 16.8 10.72V4.8C16.8 4.32 16.48 4 16 4ZM9.6 11.2H6.4C6 11.2 5.6 10.88 5.6 10.4C5.6 10 6 9.6 6.4 9.6H9.6C10 9.6 10.4 10 10.4 10.4C10.4 10.88 10.08 11.2 9.6 11.2ZM14.4 8H6.4C6 8 5.6 7.68 5.6 7.2C5.6 6.8 6 6.4 6.4 6.4H14.4C14.8 6.4 15.2 6.8 15.2 7.2C15.2 7.68 14.88 8 14.4 8Z" fill="#677ED9"/>
<path d="M19.6 17.92L18.08 16.4C18.24 16 18.32 15.6 18.32 15.12C18.32 13.36 16.88 11.92 15.12 11.92C13.36 11.92 11.92 13.36 11.92 15.12C11.92 16.88 13.36 18.32 15.12 18.32C15.6 18.32 16 18.24 16.4 18.08L17.92 19.6C18.4 20.08 19.12 20.08 19.6 19.6C20.08 19.2 20.08 18.4 19.6 17.92ZM13.6 15.2C13.6 14.32 14.32 13.6 15.2 13.6C16.08 13.6 16.8 14.32 16.8 15.2C16.8 16.08 16.08 16.8 15.2 16.8C14.32 16.8 13.6 16.08 13.6 15.2Z" fill="#677ED9"/>
</svg>
