<svg width="20" height="20" viewBox="0 0 20 20" fill="none" xmlns="http://www.w3.org/2000/svg">
<path d="M9.99861 4C7.75436 4 5.9573 5.02213 4.64908 6.23869C3.34919 7.44415 2.47982 8.88846 2.06874 9.88004C1.97709 10.0995 1.97709 10.3439 2.06874 10.5633C2.47982 11.5549 3.34919 12.9992 4.64908 14.2047C5.9573 15.4212 7.75436 16.4434 9.99861 16.4434C12.2429 16.4434 14.0399 15.4212 15.3481 14.2047C16.648 12.9964 17.5174 11.5549 17.9313 10.5633C18.0229 10.3439 18.0229 10.0995 17.9313 9.88004C17.5174 8.88846 16.648 7.44415 15.3481 6.23869C14.0399 5.02213 12.2429 4 9.99861 4ZM5.99896 10.2217C5.99896 9.16091 6.42035 8.14358 7.17043 7.3935C7.92051 6.64342 8.93784 6.22203 9.99861 6.22203C11.0594 6.22203 12.0767 6.64342 12.8268 7.3935C13.5769 8.14358 13.9983 9.16091 13.9983 10.2217C13.9983 11.2825 13.5769 12.2998 12.8268 13.0499C12.0767 13.7999 11.0594 14.2213 9.99861 14.2213C8.93784 14.2213 7.92051 13.7999 7.17043 13.0499C6.42035 12.2998 5.99896 11.2825 5.99896 10.2217ZM9.99861 8.44406C9.99861 9.42453 9.20146 10.2217 8.22099 10.2217C8.02378 10.2217 7.83491 10.1884 7.65715 10.13C7.50438 10.08 7.32662 10.1745 7.33218 10.3356C7.34051 10.5272 7.36828 10.7189 7.42106 10.9105C7.80158 12.3326 9.26534 13.177 10.6874 12.7965C12.1095 12.4159 12.9539 10.9522 12.5734 9.53008C12.2651 8.3774 11.2457 7.60246 10.1125 7.55525C9.95139 7.54969 9.85696 7.72468 9.90695 7.88022C9.96528 8.05798 9.99861 8.24685 9.99861 8.44406Z" fill="#79ACFF"/>
</svg>
