<svg width="18" height="18" viewBox="0 0 18 18" fill="none" xmlns="http://www.w3.org/2000/svg">
<g clip-path="url(#clip0_907_11275)">
<path fill-rule="evenodd" clip-rule="evenodd" d="M8.99998 11.1536L14.3821 16.5357C14.6677 16.8213 15.055 16.9818 15.4589 16.9818C15.8628 16.9818 16.2501 16.8213 16.5357 16.5357C16.8213 16.2501 16.9818 15.8628 16.9818 15.4589C16.9818 15.055 16.8213 14.6677 16.5357 14.3821L11.1516 9L16.5347 3.61791C16.6761 3.4765 16.7882 3.30863 16.8646 3.12389C16.9411 2.93916 16.9804 2.74117 16.9804 2.54123C16.9803 2.34129 16.9409 2.14332 16.8644 1.95862C16.7878 1.77392 16.6756 1.60611 16.5342 1.46476C16.3928 1.32342 16.2249 1.21131 16.0402 1.13484C15.8555 1.05837 15.6575 1.01904 15.4575 1.01909C15.2576 1.01914 15.0596 1.05856 14.8749 1.13512C14.6902 1.21167 14.5224 1.32386 14.3811 1.46527L8.99998 6.84736L3.61789 1.46527C3.47752 1.31981 3.30959 1.20375 3.12389 1.12388C2.9382 1.04401 2.73845 1.00192 2.53631 1.00006C2.33418 0.998213 2.13369 1.03664 1.94656 1.1131C1.75943 1.18955 1.58941 1.30251 1.4464 1.44539C1.30339 1.58826 1.19027 1.75818 1.11364 1.94524C1.037 2.13229 0.998391 2.33274 1.00005 2.53488C1.00171 2.73702 1.04361 2.9368 1.12331 3.12258C1.20301 3.30835 1.3189 3.47639 1.46424 3.61689L6.84836 9L1.46525 14.3831C1.31992 14.5236 1.20402 14.6917 1.12433 14.8774C1.04463 15.0632 1.00273 15.263 1.00107 15.4651C0.999406 15.6673 1.03802 15.8677 1.11465 16.0548C1.19129 16.2418 1.30441 16.4117 1.44741 16.5546C1.59042 16.6975 1.76045 16.8104 1.94758 16.8869C2.13471 16.9634 2.33519 17.0018 2.53733 16.9999C2.73947 16.9981 2.93921 16.956 3.12491 16.8761C3.31061 16.7963 3.47854 16.6802 3.6189 16.5347L8.99998 11.1536Z" fill="#DFE8FF"/>
</g>
<defs>
<clipPath id="clip0_907_11275">
<rect width="18" height="18" fill="white"/>
</clipPath>
</defs>
</svg>
