<svg width="24" height="24" viewBox="0 0 24 24" fill="none" xmlns="http://www.w3.org/2000/svg">
<g clip-path="url(#clip0_246_6324)">
<path d="M16.8381 11.2296L17.1917 10.876L16.131 9.8153L14.1878 7.87217L13.1271 6.81143L12.7735 7.16501L12.0664 7.87217L5.83333 14.1052C5.50791 14.4306 5.27011 14.8343 5.13869 15.2754L4.03101 19.0428C3.95279 19.3056 4.02476 19.5904 4.22188 19.7844C4.41901 19.9784 4.70063 20.0503 4.96346 19.9752L8.72768 18.8676C9.16888 18.7361 9.57252 18.4983 9.89794 18.1729L16.131 11.9399L16.8381 11.2296ZM9.00617 16.4989L8.72142 17.2092C8.59626 17.3062 8.45546 17.3782 8.30526 17.4251L5.85837 18.1448L6.57804 15.701C6.62185 15.5477 6.69694 15.4069 6.79394 15.2848L7.50423 15.0001V16.0014C7.50423 16.2767 7.72952 16.502 8.00488 16.502H9.00617V16.4989ZM15.3487 4.58669L14.8981 5.0404L14.191 5.74756L13.8343 6.10114L14.895 7.16188L16.8381 9.10501L17.8989 10.1657L18.2524 9.81217L18.9596 9.10501L19.4133 8.6513C20.1956 7.86904 20.1956 6.60179 19.4133 5.81953L18.1836 4.58669C17.4013 3.80444 16.1341 3.80444 15.3518 4.58669H15.3487ZM13.8655 9.84346L9.35975 14.3493C9.16575 14.5433 8.84659 14.5433 8.65259 14.3493C8.45859 14.1553 8.45859 13.8361 8.65259 13.6421L13.1584 9.1363C13.3524 8.9423 13.6715 8.9423 13.8655 9.1363C14.0595 9.3303 14.0595 9.64946 13.8655 9.84346Z" fill="#333333"/>
</g>
<defs>
<clipPath id="clip0_246_6324">
<rect width="16" height="16" fill="white" transform="translate(4 4)"/>
</clipPath>
</defs>
</svg>
